<svg version="1.2" baseProfile="tiny-ps" xmlns="http://www.w3.org/2000/svg" viewBox="0 0 128 128"><title>Brand logo</title><g fill="#000000"><rect x="56" y="50" width="18" height="1"/><rect x="56" y="51" width="18" height="1"/><rect x="56" y="52" width="18" height="1"/><rect x="56" y="53" width="18" height="1"/><rect x="56" y="54" width="18" height="1"/><rect x="56" y="55" width="18" height="1"/><rect x="56" y="56" width="18" height="1"/><rect x="56" y="57" width="18" height="1"/><rect x="56" y="58" width="18" height="1"/><rect x="56" y="59" width="18" height="1"/><rect x="45" y="60" width="10" height="1"/><rect x="45" y="61" width="10" height="1"/><rect x="45" y="62" width="10" height="1"/><rect x="74" y="62" width="2" height="1"/><rect x="45" y="63" width="10" height="1"/><rect x="74" y="63" width="3" height="1"/><rect x="45" y="64" width="10" height="1"/><rect x="74" y="64" width="4" height="1"/><rect x="45" y="65" width="10" height="1"/><rect x="74" y="65" width="5" height="1"/><rect x="45" y="66" width="10" height="1"/><rect x="74" y="66" width="6" height="1"/><rect x="45" y="67" width="10" height="1"/><rect x="74" y="67" width="7" height="1"/><rect x="45" y="68" width="10" height="1"/><rect x="74" y="68" width="8" height="1"/><rect x="45" y="69" width="10" height="1"/><rect x="74" y="69" width="9" height="1"/><rect x="45" y="70" width="10" height="1"/><rect x="67" y="70" width="16" height="1"/><rect x="45" y="71" width="10" height="1"/><rect x="66" y="71" width="17" height="1"/><rect x="45" y="72" width="10" height="1"/><rect x="67" y="72" width="16" height="1"/><rect x="45" y="73" width="10" height="1"/><rect x="68" y="73" width="15" height="1"/><rect x="45" y="74" width="10" height="1"/><rect x="69" y="74" width="14" height="1"/><rect x="45" y="75" width="10" height="1"/><rect x="70" y="75" width="13" height="1"/><rect x="45" y="76" width="10" height="1"/><rect x="71" y="76" width="12" height="1"/><rect x="45" y="77" width="10" height="1"/><rect x="72" y="77" width="11" height="1"/></g></svg>